<?xml version="1.0" encoding="utf-8"?>
<!-- Generator: Adobe Illustrator 22.0.0, SVG Export Plug-In . SVG Version: 6.00 Build 0)  -->
<svg xmlns="http://www.w3.org/2000/svg" xmlns:xlink="http://www.w3.org/1999/xlink" version="1.1" id="Layer_2" x="0px" y="0px" viewBox="0 0 256 256" style="enable-background:new 0 0 256 256;" xml:space="preserve" width="512" height="512">
<style type="text/css">
	.st0{fill:#87796F;}
	.st1{fill:#3A312A;}
	.st2{fill:#FCE8CB;}
	.st3{fill:#D7E057;}
	.st4{fill:#8AC6DD;}
	.st5{fill:#F16C7A;}
	.st6{fill:#DECAAD;}
	.st7{fill:#B9C239;}
	.st8{fill:#695B51;}
	.st9{fill:#8AC6DD;stroke:#3A312A;stroke-width:3;stroke-linecap:round;stroke-linejoin:round;stroke-miterlimit:10;}
	.st10{fill:#6CA8BF;}
	.st11{fill:#D34E5C;}
	.st12{fill-rule:evenodd;clip-rule:evenodd;fill:#FCE8CB;}
	.st13{fill:#F5978A;}
	.st14{fill-rule:evenodd;clip-rule:evenodd;fill:#F16C7A;}
	.st15{fill-rule:evenodd;clip-rule:evenodd;fill:#D7E057;}
</style>
<g>
	<g>
		<g>
			<path class="st0" d="M28.358,73.322v102.144c0,9.411,7.63,17.041,17.041,17.041h144.353c9.411,0,17.041-7.629,17.041-17.041     V73.322H28.358z"/>
		</g>
	</g>
	<g>
		<g>
			<path class="st1" d="M206.793,71.822H28.357c-0.828,0-1.5,0.671-1.5,1.5v50.044c0,0.829,0.672,1.5,1.5,1.5s1.5-0.671,1.5-1.5     V74.822h175.436v100.644c0,8.569-6.972,15.541-15.541,15.541H45.398c-8.569,0-15.541-6.972-15.541-15.541v-37.5     c0-0.829-0.672-1.5-1.5-1.5s-1.5,0.671-1.5,1.5v37.5c0,10.223,8.317,18.541,18.541,18.541h144.354     c10.224,0,18.541-8.317,18.541-18.541V73.322C208.293,72.494,207.621,71.822,206.793,71.822z"/>
		</g>
	</g>
	<g>
		<g>
			<rect x="28.358" y="73.322" class="st2" width="178.435" height="25.26"/>
		</g>
	</g>
	<g>
		<g>
			<path class="st1" d="M206.793,71.822H28.358c-0.828,0-1.5,0.671-1.5,1.5v25.26c0,0.829,0.672,1.5,1.5,1.5h178.435     c0.828,0,1.5-0.671,1.5-1.5v-25.26C208.293,72.494,207.621,71.822,206.793,71.822z M205.293,97.082H29.858v-22.26h175.435V97.082     z"/>
		</g>
	</g>
	<g>
		<g>
			<polygon class="st5" points="43.234,73.322 28.358,98.582 45.739,98.582 60.616,73.322    "/>
		</g>
	</g>
	<g>
		<g>
			<path class="st1" d="M61.918,72.578c-0.268-0.467-0.765-0.755-1.303-0.755H43.234c-0.531,0-1.022,0.281-1.293,0.739     l-14.876,25.26c-0.272,0.464-0.276,1.039-0.01,1.506c0.268,0.467,0.765,0.755,1.303,0.755h17.381     c0.531,0,1.022-0.281,1.293-0.739l14.876-25.26C62.181,73.62,62.185,73.045,61.918,72.578z M44.882,97.082H30.982l13.109-22.26     h13.899L44.882,97.082z"/>
		</g>
	</g>
	<g>
		<g>
			<polygon class="st5" points="79.779,73.322 64.902,98.582 82.283,98.582 97.16,73.322    "/>
		</g>
	</g>
	<g>
		<g>
			<path class="st1" d="M98.463,72.578c-0.268-0.467-0.765-0.756-1.303-0.756H79.778c-0.531,0-1.022,0.281-1.293,0.739     l-14.876,25.26c-0.272,0.464-0.276,1.039-0.01,1.506c0.268,0.467,0.765,0.755,1.303,0.755h17.381     c0.531,0,1.022-0.281,1.293-0.739l14.877-25.26C98.726,73.62,98.729,73.045,98.463,72.578z M81.426,97.082H67.526l13.109-22.26     h13.9L81.426,97.082z"/>
		</g>
	</g>
	<g>
		<g>
			<polygon class="st5" points="116.323,73.322 101.446,98.582 118.828,98.582 133.704,73.322    "/>
		</g>
	</g>
	<g>
		<g>
			<path class="st1" d="M135.007,72.578c-0.268-0.467-0.765-0.756-1.303-0.756h-17.381c-0.531,0-1.022,0.281-1.293,0.739     l-14.877,25.26c-0.272,0.464-0.276,1.038-0.01,1.505c0.268,0.467,0.765,0.756,1.303,0.756h17.381     c0.531,0,1.022-0.281,1.293-0.739l14.877-25.26C135.27,73.62,135.273,73.045,135.007,72.578z M117.97,97.082H104.07l13.11-22.26     h13.899L117.97,97.082z"/>
		</g>
	</g>
	<g>
		<g>
			<polygon class="st5" points="152.867,73.322 137.991,98.582 155.372,98.582 170.248,73.322    "/>
		</g>
	</g>
	<g>
		<g>
			<path class="st1" d="M171.551,72.578c-0.268-0.467-0.765-0.755-1.303-0.755h-17.381c-0.531,0-1.022,0.281-1.293,0.739     l-14.877,25.26c-0.272,0.464-0.276,1.038-0.01,1.505c0.268,0.467,0.765,0.756,1.303,0.756h17.382     c0.531,0,1.022-0.281,1.293-0.739l14.876-25.26C171.813,73.62,171.817,73.045,171.551,72.578z M154.515,97.082h-13.9l13.11-22.26     h13.899L154.515,97.082z"/>
		</g>
	</g>
	<g>
		<g>
			<polygon class="st5" points="189.411,73.322 174.535,98.582 191.916,98.582 206.792,73.322    "/>
		</g>
	</g>
	<g>
		<g>
			<path class="st1" d="M208.096,72.578c-0.268-0.467-0.765-0.756-1.303-0.756h-17.382c-0.531,0-1.022,0.281-1.293,0.739     l-14.876,25.26c-0.272,0.464-0.276,1.039-0.01,1.506c0.268,0.467,0.765,0.755,1.303,0.755h17.381     c0.531,0,1.022-0.281,1.293-0.739l14.877-25.26C208.358,73.62,208.362,73.045,208.096,72.578z M191.059,97.082h-13.899     l13.109-22.26h13.9L191.059,97.082z"/>
		</g>
	</g>
	<g>
		<g>
			<path class="st2" d="M201.407,28.113c-0.656-3.33-2.418-6.156-4.828-8.182c-3.202-2.698-7.55-3.971-11.969-3.098l-3.018,0.592     L37.624,45.773c-7.766,1.529-12.817,9.055-11.288,16.812l2.114,10.736l143.425-28.245l17.052-3.354l14.595-2.874L201.407,28.113z     "/>
		</g>
	</g>
	<g>
		<g>
			<path class="st1" d="M204.992,38.559l-2.113-10.736c-0.694-3.521-2.588-6.732-5.333-9.04c-3.688-3.107-8.507-4.354-13.225-3.422     L37.334,44.302c-4.148,0.817-7.73,3.199-10.085,6.706c-2.355,3.508-3.202,7.723-2.386,11.868l2.114,10.736     c0.141,0.715,0.768,1.21,1.47,1.21c0.097,0,0.194-0.009,0.292-0.029L203.811,40.32C204.623,40.16,205.152,39.372,204.992,38.559z      M29.631,71.56l-1.824-9.264c-0.662-3.359,0.024-6.774,1.933-9.616c1.908-2.843,4.812-4.773,8.175-5.435l143.968-28.348     l3.02-0.593c0.829-0.164,1.662-0.245,2.489-0.245c2.981,0,5.884,1.048,8.225,3.019c2.256,1.897,3.75,4.43,4.32,7.324l1.823,9.264     L29.631,71.56z"/>
		</g>
	</g>
	<g>
		<g>
			<polygon class="st5" points="38.166,45.664 28.451,73.322 45.504,69.964 55.22,42.306    "/>
		</g>
	</g>
	<g>
		<g>
			<path class="st1" d="M56.354,41.324c-0.353-0.407-0.897-0.592-1.424-0.49l-17.054,3.358c-0.521,0.103-0.949,0.473-1.125,0.975     l-9.715,27.658c-0.179,0.508-0.071,1.072,0.281,1.479c0.288,0.333,0.703,0.518,1.134,0.518c0.097,0,0.193-0.009,0.29-0.028     l17.054-3.358c0.521-0.103,0.949-0.473,1.125-0.975l9.715-27.658C56.813,42.295,56.706,41.731,56.354,41.324z M44.374,68.658     l-13.638,2.686l8.561-24.373l13.638-2.686L44.374,68.658z"/>
		</g>
	</g>
	<g>
		<g>
			<polygon class="st5" points="74.022,38.604 64.306,66.262 81.36,62.903 91.076,35.245    "/>
		</g>
	</g>
	<g>
		<g>
			<path class="st1" d="M92.21,34.263c-0.353-0.407-0.896-0.595-1.424-0.49l-17.054,3.358c-0.521,0.103-0.949,0.473-1.125,0.975     l-9.716,27.658c-0.179,0.508-0.071,1.072,0.281,1.479c0.288,0.333,0.703,0.518,1.134,0.518c0.097,0,0.193-0.009,0.29-0.028     l17.054-3.358c0.521-0.103,0.949-0.473,1.125-0.975l9.716-27.658C92.67,35.234,92.562,34.67,92.21,34.263z M80.229,61.597     l-13.638,2.686l8.562-24.373l13.638-2.686L80.229,61.597z"/>
		</g>
	</g>
	<g>
		<g>
			<polygon class="st5" points="109.878,31.543 100.162,59.201 117.216,55.843 126.931,28.185    "/>
		</g>
	</g>
	<g>
		<g>
			<path class="st1" d="M128.065,27.203c-0.353-0.407-0.896-0.595-1.424-0.49l-17.054,3.358c-0.521,0.103-0.949,0.473-1.125,0.975     l-9.716,27.658c-0.179,0.508-0.071,1.072,0.281,1.479c0.288,0.333,0.703,0.518,1.134,0.518c0.097,0,0.193-0.009,0.29-0.028     l17.054-3.358c0.521-0.103,0.949-0.473,1.125-0.975l9.716-27.658C128.525,28.174,128.418,27.609,128.065,27.203z M116.085,54.537     l-13.638,2.686l8.562-24.373l13.638-2.686L116.085,54.537z"/>
		</g>
	</g>
	<g>
		<g>
			<polygon class="st5" points="145.733,24.482 136.018,52.14 153.071,48.782 162.787,21.124    "/>
		</g>
	</g>
	<g>
		<g>
			<path class="st1" d="M163.921,20.142c-0.353-0.407-0.896-0.595-1.424-0.49l-17.054,3.358c-0.521,0.103-0.949,0.473-1.125,0.975     l-9.716,27.658c-0.179,0.508-0.071,1.072,0.281,1.479c0.288,0.333,0.703,0.518,1.134,0.518c0.097,0,0.193-0.009,0.29-0.028     l17.054-3.358c0.521-0.103,0.949-0.473,1.125-0.975l9.716-27.658C164.381,21.113,164.273,20.549,163.921,20.142z M151.94,47.476     l-13.638,2.686l8.562-24.373l13.638-2.686L151.94,47.476z"/>
		</g>
	</g>
	<g>
		<g>
			<path class="st5" d="M184.611,16.832l-3.018,0.592l-9.719,27.652l17.052-3.354l7.654-21.792     C193.377,17.233,189.03,15.96,184.611,16.832z"/>
		</g>
	</g>
	<g>
		<g>
			<path class="st1" d="M197.546,18.783c-3.688-3.106-8.507-4.355-13.225-3.422l-3.018,0.592c-0.521,0.102-0.95,0.473-1.126,0.974     l-9.72,27.652c-0.179,0.508-0.071,1.072,0.281,1.479c0.288,0.333,0.703,0.518,1.134,0.518c0.096,0,0.193-0.009,0.289-0.028     l17.053-3.354c0.521-0.103,0.95-0.473,1.126-0.975l7.654-21.792C198.202,19.839,198.023,19.185,197.546,18.783z M187.795,40.417     l-13.637,2.682l8.565-24.367l2.178-0.427c3.484-0.69,7.039,0.092,9.906,2.147L187.795,40.417z"/>
		</g>
	</g>
	<g>
		<g>
			<path class="st5" d="M163.209,124.28H71.941c-6.762,0-12.244,5.482-12.244,12.244v12.965c0,6.762,5.482,12.244,12.244,12.244     h91.269c6.762,0,12.244-5.482,12.244-12.244v-12.965C175.453,129.761,169.971,124.28,163.209,124.28z"/>
		</g>
	</g>
	<g>
		<g>
			<path class="st1" d="M163.21,122.78H71.941c-7.578,0-13.744,6.166-13.744,13.744v12.965c0,7.579,6.165,13.744,13.743,13.744     h91.27c7.578,0,13.743-6.166,13.743-13.744v-12.965C176.953,128.945,170.788,122.78,163.21,122.78z M173.953,149.488     c0,5.924-4.819,10.744-10.743,10.744H71.94c-5.924,0-10.743-4.82-10.743-10.744v-12.965c0-5.924,4.819-10.744,10.744-10.744     h91.269c5.924,0,10.743,4.82,10.743,10.744V149.488z"/>
		</g>
	</g>
	<g>
		<g>
			<circle class="st3" cx="32.71" cy="73.322" r="13.743"/>
		</g>
	</g>
	<g>
		<g>
			<path class="st1" d="M32.71,58.079c-8.405,0-15.243,6.838-15.243,15.243s6.838,15.244,15.243,15.244s15.243-6.838,15.243-15.244     S41.115,58.079,32.71,58.079z M32.71,85.566c-6.751,0-12.243-5.493-12.243-12.244s5.492-12.243,12.243-12.243     s12.243,5.492,12.243,12.243S39.461,85.566,32.71,85.566z"/>
		</g>
	</g>
	<g>
		<g>
			<path class="st2" d="M32.71,67.016c-3.483,0-6.306,2.823-6.306,6.306s2.823,6.306,6.306,6.306s6.306-2.823,6.306-6.306     S36.193,67.016,32.71,67.016z"/>
		</g>
	</g>
	<g>
		<g>
			<path class="st1" d="M32.71,65.516c-4.305,0-7.807,3.502-7.807,7.806s3.502,7.806,7.807,7.806s7.807-3.502,7.807-7.806     S37.015,65.516,32.71,65.516z M32.71,78.128c-2.65,0-4.807-2.156-4.807-4.806s2.156-4.806,4.807-4.806s4.807,2.156,4.807,4.806     S35.36,78.128,32.71,78.128z"/>
		</g>
	</g>
	<g>
		<g>
			<path class="st3" d="M223.206,177.647h-67.333c-3.774,0-6.833,3.059-6.833,6.833v1.333c0,3.774,3.059,6.833,6.833,6.833h67.333     c3.774,0,6.833-3.06,6.833-6.833v-1.333C230.039,180.706,226.98,177.647,223.206,177.647z"/>
		</g>
	</g>
	<g>
		<g>
			<path class="st1" d="M223.206,176.147h-67.334c-4.595,0-8.333,3.738-8.333,8.333v1.333c0,4.595,3.738,8.333,8.333,8.333h67.334     c4.595,0,8.333-3.738,8.333-8.333v-1.333C231.539,179.885,227.801,176.147,223.206,176.147z M228.539,185.813     c0,2.941-2.393,5.333-5.333,5.333h-67.334c-2.94,0-5.333-2.393-5.333-5.333v-1.333c0-2.94,2.393-5.333,5.333-5.333h67.334     c2.94,0,5.333,2.393,5.333,5.333V185.813z"/>
		</g>
	</g>
	<g>
		<g>
			<path class="st3" d="M223.206,162.647h-67.333c-3.774,0-6.833,3.059-6.833,6.833v1.333c0,3.774,3.059,6.833,6.833,6.833h67.333     c3.774,0,6.833-3.06,6.833-6.833v-1.333C230.039,165.706,226.98,162.647,223.206,162.647z"/>
		</g>
	</g>
	<g>
		<g>
			<path class="st1" d="M223.206,161.147h-67.334c-4.595,0-8.333,3.738-8.333,8.333v1.333c0,4.595,3.738,8.333,8.333,8.333h67.334     c4.595,0,8.333-3.738,8.333-8.333v-1.333C231.539,164.885,227.801,161.147,223.206,161.147z M228.539,170.813     c0,2.941-2.393,5.333-5.333,5.333h-67.334c-2.94,0-5.333-2.393-5.333-5.333v-1.333c0-2.94,2.393-5.333,5.333-5.333h67.334     c2.94,0,5.333,2.393,5.333,5.333V170.813z"/>
		</g>
	</g>
	<g>
		<g>
			<path class="st3" d="M223.206,147.647h-67.333c-3.774,0-6.833,3.059-6.833,6.833v1.333c0,3.774,3.059,6.833,6.833,6.833h67.333     c3.774,0,6.833-3.06,6.833-6.833v-1.333C230.039,150.706,226.98,147.647,223.206,147.647z"/>
		</g>
	</g>
	<g>
		<g>
			<path class="st1" d="M223.206,146.147h-67.334c-4.595,0-8.333,3.738-8.333,8.333v1.333c0,4.595,3.738,8.333,8.333,8.333h67.334     c4.595,0,8.333-3.738,8.333-8.333v-1.333C231.539,149.885,227.801,146.147,223.206,146.147z M228.539,155.813     c0,2.941-2.393,5.333-5.333,5.333h-67.334c-2.94,0-5.333-2.393-5.333-5.333v-1.333c0-2.94,2.393-5.333,5.333-5.333h67.334     c2.94,0,5.333,2.393,5.333,5.333V155.813z"/>
		</g>
	</g>
	<g>
		<g>
			<circle class="st3" cx="189.539" cy="106.314" r="40.5"/>
		</g>
	</g>
	<g>
		<g>
			<path class="st1" d="M189.539,64.313c-23.159,0-42,18.841-42,42s18.841,42,42,42s42-18.841,42-42S212.698,64.313,189.539,64.313z      M189.539,145.313c-21.505,0-39-17.495-39-39s17.495-39,39-39s39,17.495,39,39S211.044,145.313,189.539,145.313z"/>
		</g>
	</g>
	<g>
		<g>
			<circle class="st3" cx="189.539" cy="106.314" r="40.5"/>
		</g>
	</g>
	<g>
		<g>
			<path class="st1" d="M189.539,64.313c-23.159,0-42,18.841-42,42s18.841,42,42,42s42-18.841,42-42S212.698,64.313,189.539,64.313z      M189.539,145.313c-21.505,0-39-17.495-39-39s17.495-39,39-39s39,17.495,39,39S211.044,145.313,189.539,145.313z"/>
		</g>
	</g>
	<g>
		<g>
			<path class="st0" d="M194.354,101.734c-5.898-2.22-8.328-3.677-8.328-5.968c0-1.942,1.457-3.886,5.968-3.886     c4.996,0,8.188,1.595,9.992,2.359L204,86.399c-2.29-1.111-5.413-2.083-10.062-2.291v-6.107h-6.8v6.592     c-7.425,1.457-11.727,6.245-11.727,12.352c0,6.731,5.065,10.202,12.49,12.699c5.135,1.735,7.356,3.401,7.356,6.037     c0,2.777-2.707,4.303-6.662,4.303c-4.511,0-8.605-1.457-11.519-3.053l-2.082,8.118c2.637,1.526,7.147,2.775,11.796,2.984v6.592     h6.801v-7.078c7.98-1.387,12.352-6.661,12.352-12.837C205.943,108.465,202.611,104.648,194.354,101.734z"/>
		</g>
	</g>
	<g>
		<g>
			<path class="st1" d="M194.883,100.33c-5.362-2.018-7.356-3.255-7.356-4.563c0-2.076,2.8-2.386,4.469-2.386     c4.246,0,7.04,1.214,8.889,2.017l0.519,0.224c0.402,0.17,0.858,0.157,1.25-0.037c0.392-0.193,0.68-0.548,0.788-0.971l2.013-7.841     c0.177-0.691-0.157-1.412-0.799-1.723c-2.652-1.286-5.679-2.058-9.217-2.349v-4.699c0-0.829-0.672-1.5-1.5-1.5h-6.8     c-0.828,0-1.5,0.671-1.5,1.5v5.392c-7.269,1.845-11.728,6.951-11.728,13.552c0,8.487,7.221,12.005,13.51,14.12     c5.259,1.776,6.336,3.13,6.336,4.616c0,2.601-3.95,2.803-5.161,2.803c-4.837,0-8.842-1.797-10.799-2.869     c-0.407-0.221-0.894-0.245-1.317-0.06c-0.426,0.185-0.741,0.555-0.856,1.003l-2.082,8.118c-0.167,0.651,0.12,1.334,0.702,1.671     c2.722,1.575,6.854,2.72,11.048,3.089v5.188c0,0.829,0.672,1.5,1.5,1.5h6.8c0.828,0,1.5-0.671,1.5-1.5v-5.853     c7.548-1.761,12.353-7.173,12.353-14.062C207.442,107.738,203.678,103.434,194.883,100.33z M193.333,126.069     c-0.719,0.125-1.243,0.749-1.243,1.478v5.578h-3.8v-5.092c0-0.802-0.631-1.462-1.433-1.499     c-3.657-0.164-7.479-1.032-10.115-2.266l1.324-5.166c2.468,1.125,6.195,2.381,10.528,2.381c5.034,0,8.161-2.224,8.161-5.803     c0-4.068-4.025-5.988-8.377-7.458c-8.039-2.704-11.469-6.077-11.469-11.277c0-5.521,3.932-9.588,10.517-10.881     c0.703-0.138,1.211-0.755,1.211-1.472v-5.092h3.8v4.607c0,0.802,0.632,1.463,1.434,1.499c3.23,0.144,5.979,0.685,8.36,1.647     l-1.263,4.919c-1.996-0.816-4.932-1.793-8.974-1.793c-6.93,0-7.469,4.122-7.469,5.386c0,3.594,3.854,5.322,9.329,7.382     c7.618,2.689,10.587,5.932,10.587,11.562C204.442,120.526,200.186,124.879,193.333,126.069z"/>
		</g>
	</g>
	<g>
		<g>
			<path class="st4" d="M233.435,192.507H22.565c-3.432,0-6.214,2.782-6.214,6.214v11.044c0,3.432,2.782,6.214,6.214,6.214h210.87     c3.432,0,6.214-2.782,6.214-6.214v-11.044C239.649,195.289,236.867,192.507,233.435,192.507z"/>
		</g>
	</g>
	<g>
		<g>
			<path class="st1" d="M233.435,191.007H22.565c-4.254,0-7.714,3.46-7.714,7.714v11.044c0,4.253,3.46,7.714,7.714,7.714h64.548     c0.828,0,1.5-0.671,1.5-1.5s-0.672-1.5-1.5-1.5H22.565c-2.6,0-4.714-2.115-4.714-4.714v-11.044c0-2.599,2.114-4.714,4.714-4.714     h210.869c2.6,0,4.714,2.115,4.714,4.714v11.044c0,2.599-2.114,4.714-4.714,4.714h-132.19c-0.828,0-1.5,0.671-1.5,1.5     s0.672,1.5,1.5,1.5h132.19c4.254,0,7.714-3.46,7.714-7.714v-11.044C241.148,194.467,237.688,191.007,233.435,191.007z"/>
		</g>
	</g>
	<g>
		<g>
			<rect x="109.278" y="215.979" class="st4" width="37.803" height="23.461"/>
		</g>
	</g>
	<g>
		<g>
			<path class="st1" d="M147.081,214.479h-37.804c-0.828,0-1.5,0.671-1.5,1.5v23.461c0,0.829,0.672,1.5,1.5,1.5h37.804     c0.828,0,1.5-0.671,1.5-1.5v-23.461C148.581,215.15,147.909,214.479,147.081,214.479z M145.581,237.94h-34.804v-20.461h34.804     V237.94z"/>
		</g>
	</g>
	<g>
		<g>
			<path class="st7" d="M223.209,179.15h-15c2.94,0,5.33,2.39,5.33,5.33v1.33c0,2.54-1.78,4.66-4.16,5.2h15     c2.38-0.54,4.16-2.66,4.16-5.2v-1.33C228.539,181.54,226.149,179.15,223.209,179.15z"/>
		</g>
	</g>
	<g>
		<g>
			<path class="st7" d="M223.209,164.15h-15c2.94,0,5.33,2.39,5.33,5.33v1.33c0,2.94-2.39,5.34-5.33,5.34h15     c2.94,0,5.33-2.4,5.33-5.34v-1.33C228.539,166.54,226.149,164.15,223.209,164.15z"/>
		</g>
	</g>
	<g>
		<g>
			<path class="st7" d="M223.209,149.15h-15c2.94,0,5.33,2.39,5.33,5.33v1.33c0,2.94-2.39,5.34-5.33,5.34h15     c2.94,0,5.33-2.4,5.33-5.34v-1.33C228.539,151.54,226.149,149.15,223.209,149.15z"/>
		</g>
	</g>
	<g>
		<g>
			<path class="st7" d="M189.539,67.31c-2.57,0-5.07,0.25-7.5,0.72c17.93,3.51,31.5,19.34,31.5,38.28     c0,18.95-13.57,34.77-31.5,38.28c2.43,0.47,4.93,0.72,7.5,0.72c21.51,0,39-17.49,39-39     C228.539,84.81,211.049,67.31,189.539,67.31z"/>
		</g>
	</g>
	<g>
		<g>
			<path class="st10" d="M233.439,194.01h-15c2.6,0,4.71,2.11,4.71,4.71v11.05c0,2.59-2.11,4.71-4.71,4.71h15     c2.6,0,4.71-2.12,4.71-4.71v-11.05C238.149,196.12,236.039,194.01,233.439,194.01z"/>
		</g>
	</g>
	<g>
		<g>
			<path class="st6" d="M199.935,28.403c-0.423-2.147-1.356-4.093-2.729-5.729l-5.995,17.07l10.548-2.077L199.935,28.403z"/>
		</g>
	</g>
	<g>
		<g>
			<path class="st11" d="M184.899,18.3l-2.18,0.43l-1.38,3.93c0.08,0.06,0.16,0.12,0.24,0.19c2.41,2.03,4.17,4.85,4.83,8.18     l1.68,8.56l6.72-19.14C191.939,18.4,188.389,17.61,184.899,18.3z"/>
		</g>
	</g>
</g>
</svg>
